<svg width="45" height="39" viewBox="0 0 45 39" fill="none" xmlns="http://www.w3.org/2000/svg">
<path d="M21.384 14.696C19.512 14.696 19.032 14.36 19.032 13.352C19.032 11.912 19.368 11.624 21.288 11.624C24.072 11.624 25.032 12.2 25.032 13.208C25.032 14.072 23.976 14.696 21.384 14.696ZM19.464 35.48C35.928 35.672 41.352 32.648 41.352 25.832C41.352 22.136 39.624 19.208 35.256 18.392C34.536 18.296 34.152 17.912 34.152 17.288C34.152 16.664 34.536 16.424 35.256 16.088C37.848 14.936 38.616 13.64 38.616 10.808C38.616 5.86399 34.152 3.79999 19.224 3.79999C9.72001 3.79999 7.84801 4.80799 6.36001 8.02399C5.16001 10.664 4.48801 14.36 4.05601 19.016C3.67201 23.864 3.62401 27.464 4.44001 30.296C5.49601 34.136 7.94401 35.48 19.464 35.48ZM21.24 20.072C23.928 20.072 24.936 20.84 24.936 21.848C24.936 22.904 24.024 23.48 21.528 23.48C19.272 23.48 18.888 23.192 18.888 21.944C18.888 20.456 19.368 20.072 21.24 20.072Z" fill="white"/>
<path fill-rule="evenodd" clip-rule="evenodd" d="M6.36 8.02399C7.848 4.80799 9.72 3.79999 19.224 3.79999C34.152 3.79999 38.616 5.86399 38.616 10.808C38.616 13.2094 38.0638 14.5064 36.3154 15.5477C36.2726 15.5732 36.229 15.5986 36.1847 15.6238C36.0402 15.7061 35.888 15.7868 35.7278 15.8665C35.6804 15.8901 35.6322 15.9136 35.5833 15.937C35.4776 15.9877 35.3685 16.038 35.256 16.088C34.536 16.424 34.152 16.664 34.152 17.288C34.152 17.912 34.536 18.296 35.256 18.392C35.6614 18.4677 36.0441 18.5617 36.4048 18.6727C36.4273 18.6796 36.4497 18.6866 36.472 18.6937C36.495 18.701 36.5179 18.7083 36.5407 18.7157C36.5766 18.7274 36.6123 18.7392 36.6477 18.7512C39.9954 19.8852 41.352 22.5571 41.352 25.832C41.352 32.648 35.928 35.672 19.464 35.48C7.944 35.48 5.496 34.136 4.44 30.296C3.624 27.464 3.672 23.864 4.056 19.016C4.488 14.36 5.16 10.664 6.36 8.02399ZM1.55224 31.1091C0.572848 27.6947 0.684017 23.5937 1.06537 18.7791L1.06697 18.759L1.06883 18.7388C1.50547 14.0328 2.20795 9.90869 3.62891 6.78258L3.63308 6.77339L3.63732 6.76424C4.07815 5.81147 4.64468 4.8035 5.51359 3.9126C6.41048 2.99299 7.49156 2.33715 8.78225 1.87889C11.1741 1.02968 14.5096 0.799988 19.224 0.799988C26.6879 0.799988 32.036 1.29654 35.5844 2.6459C37.4243 3.34561 39.0066 4.35601 40.1045 5.85315C41.2232 7.37862 41.616 9.10421 41.616 10.808C41.616 12.4407 41.4075 14.1458 40.4489 15.673C40.1883 16.0881 39.8924 16.4584 39.5691 16.7912C40.6568 17.4203 41.5874 18.232 42.3367 19.2249C43.8148 21.1836 44.352 23.5358 44.352 25.832C44.352 27.9345 43.9314 29.9873 42.7992 31.8192C41.6613 33.6603 39.9627 35.0226 37.8446 36.0053C33.7739 37.894 27.7122 38.5753 19.4464 38.48C13.7307 38.4793 9.73073 38.1667 6.97802 37.1382C5.50288 36.5871 4.26858 35.7927 3.31344 34.6526C2.38266 33.5417 1.87993 32.295 1.55224 31.1091ZM22.3147 11.6549C22.0041 11.6344 21.6625 11.624 21.288 11.624C19.368 11.624 19.032 11.912 19.032 13.352C19.032 14.36 19.512 14.696 21.384 14.696C21.7237 14.696 22.0369 14.6853 22.3249 14.6647C22.4673 14.6545 22.6034 14.642 22.7335 14.6271C24.3491 14.4424 25.032 13.9028 25.032 13.208C25.032 12.3978 24.4118 11.8667 22.7226 11.6894C22.593 11.6758 22.4571 11.6643 22.3147 11.6549ZM20.6498 11.6566C20.6499 11.6565 20.6545 11.6573 20.6631 11.6594C20.6539 11.6577 20.6496 11.6567 20.6498 11.6566ZM20.6115 14.6519C20.6129 14.6516 20.6143 14.6514 20.6157 14.6512C20.6029 14.6538 20.6008 14.6536 20.6115 14.6519ZM20.4889 20.4301C20.4891 20.4299 20.4957 20.4311 20.508 20.4341C20.4947 20.4317 20.4886 20.4302 20.4889 20.4301ZM24.936 21.848C24.936 20.84 23.928 20.072 21.24 20.072C19.368 20.072 18.888 20.456 18.888 21.944C18.888 23.192 19.272 23.48 21.528 23.48C24.024 23.48 24.936 22.904 24.936 21.848Z" fill="#000035"/>
</svg>
