<svg width="125" height="125" viewBox="0 0 125 125" fill="none" xmlns="http://www.w3.org/2000/svg">
<path d="M62.5 123.821C96.3665 123.821 123.821 96.3665 123.821 62.5C123.821 28.6335 96.3665 1.17924 62.5 1.17924C28.6335 1.17924 1.17924 28.6335 1.17924 62.5C1.17924 96.3665 28.6335 123.821 62.5 123.821Z" fill="white"/>
<path fill-rule="evenodd" clip-rule="evenodd" d="M62.5 2.67924C29.4619 2.67924 2.67924 29.4619 2.67924 62.5C2.67924 95.5381 29.4619 122.321 62.5 122.321C95.5381 122.321 122.321 95.5381 122.321 62.5C122.321 29.4619 95.5381 2.67924 62.5 2.67924ZM-0.320755 62.5C-0.320755 27.8051 27.8051 -0.320755 62.5 -0.320755C97.1949 -0.320755 125.321 27.8051 125.321 62.5C125.321 97.1949 97.1949 125.321 62.5 125.321C27.8051 125.321 -0.320755 97.1949 -0.320755 62.5Z" fill="#000035"/>
<path d="M2.31133 70.4245C2.31133 70.4245 31.8679 91.6509 37.3113 117.613L2.31133 70.4245Z" fill="white"/>
<path fill-rule="evenodd" clip-rule="evenodd" d="M1.4361 71.6427C1.43616 71.6428 1.43634 71.6429 2.31133 70.4245C3.18631 69.2062 3.18671 69.2065 3.18723 69.2068L3.19405 69.2117L3.21248 69.2251L3.28082 69.2748C3.34016 69.3181 3.4268 69.3817 3.53909 69.4651C3.76367 69.632 4.09091 69.878 4.50768 70.1993C5.34112 70.8416 6.53317 71.7852 7.97859 72.9976C10.868 75.4213 14.7774 78.9258 18.861 83.2536C26.9931 91.8717 35.9722 103.916 38.7794 117.305L35.8432 117.921C33.2071 105.348 24.6861 93.7981 16.6791 85.3125C12.6932 81.0883 8.87318 77.6637 6.05061 75.296C4.64004 74.1128 3.48046 73.1952 2.67626 72.5754C2.27421 72.2655 1.96113 72.0301 1.75009 71.8734C1.64457 71.795 1.56457 71.7362 1.51174 71.6977L1.45306 71.655L1.43938 71.6451L1.4361 71.6427Z" fill="#000035"/>
<path d="M71.6226 2.27359C71.6226 2.27359 34.0283 61.7736 54.4717 85.1321C74.9151 108.491 115.066 93.1604 115.066 93.1604" fill="white"/>
<path fill-rule="evenodd" clip-rule="evenodd" d="M70.3538 1.47357C70.3542 1.47285 70.3545 1.47236 71.6226 2.27359L72.1302 2.5943C72.8907 3.07481 72.8907 3.07481 72.8906 3.07497L72.8852 3.08355L72.8662 3.11377C72.8491 3.14102 72.8232 3.1824 72.7889 3.23756C72.7203 3.34788 72.6179 3.51328 72.4846 3.73085C72.2181 4.16601 71.8284 4.80976 71.3387 5.63877C70.3591 7.297 68.9802 9.69537 67.3882 12.6474C64.202 18.5555 60.1724 26.6627 56.7809 35.4818C53.3842 44.3146 50.6573 53.7862 50.023 62.4407C49.3875 71.1107 50.865 78.7335 55.6004 84.1442C65.3592 95.2945 79.9085 97.3097 92.3267 96.4096C98.5064 95.9617 104.07 94.796 108.092 93.7399C110.101 93.2124 111.72 92.7137 112.833 92.3483C113.389 92.1657 113.819 92.0165 114.107 91.9139C114.251 91.8626 114.359 91.8229 114.43 91.7966L114.509 91.7672L114.527 91.7604L114.531 91.759C114.531 91.7591 114.531 91.7591 115.066 93.1604C115.601 94.5617 115.6 94.562 115.6 94.5622L115.59 94.5659L115.564 94.5756C115.542 94.5838 115.511 94.5956 115.47 94.6107C115.388 94.641 115.269 94.6845 115.114 94.7398C114.803 94.8503 114.35 95.0077 113.769 95.1986C112.606 95.5804 110.929 96.0968 108.854 96.6416C104.709 97.7299 98.957 98.9369 92.5436 99.4017C79.7755 100.327 64.0276 98.3281 53.3429 86.12C47.8567 79.8514 46.3672 71.2773 47.031 62.2214C47.6959 53.1501 50.5344 43.3671 53.9808 34.405C57.4325 25.4293 61.5238 17.2016 64.7477 11.2234C66.3607 8.23241 67.7592 5.79985 68.7557 4.11293C69.254 3.26937 69.652 2.61198 69.9262 2.16415C70.0633 1.94023 70.1695 1.76868 70.2419 1.65241C70.2781 1.59428 70.3058 1.54996 70.3247 1.51983L70.3464 1.48532L70.3538 1.47357Z" fill="#000035"/>
</svg>
