<svg width="75" height="75" viewBox="0 0 75 75" fill="none" xmlns="http://www.w3.org/2000/svg">
<path fill-rule="evenodd" clip-rule="evenodd" d="M36.25 75V0H38.75V75H36.25Z" fill="#FF5400"/>
<path fill-rule="evenodd" clip-rule="evenodd" d="M0 36.25H75V38.75H0V36.25Z" fill="#FF5400"/>
<path fill-rule="evenodd" clip-rule="evenodd" d="M3.03775 22.6699L72.8734 50.002L71.9623 52.3301L2.12661 24.9979L3.03775 22.6699Z" fill="#FF5400"/>
<path fill-rule="evenodd" clip-rule="evenodd" d="M2.46057 50.9251L71.5677 21.7715L72.5394 24.0749L3.43229 53.2285L2.46057 50.9251Z" fill="#FF5400"/>
<path fill-rule="evenodd" clip-rule="evenodd" d="M10.0983 63.134L63.134 10.0983L64.9017 11.866L11.866 64.9017L10.0983 63.134Z" fill="#FF5400"/>
<path fill-rule="evenodd" clip-rule="evenodd" d="M11.866 10.0983L64.9017 63.134L63.134 64.9017L10.0983 11.866L11.866 10.0983Z" fill="#FF5400"/>
<path fill-rule="evenodd" clip-rule="evenodd" d="M52.7054 3.20038L24.6125 72.7361L22.2945 71.7996L50.3874 2.2639L52.7054 3.20038Z" fill="#FF5400"/>
<path fill-rule="evenodd" clip-rule="evenodd" d="M23.9989 2.4902L53.3024 71.5331L51.0011 72.5098L21.6976 3.46694L23.9989 2.4902Z" fill="#FF5400"/>
<path d="M37.409 44.0303C40.9239 44.0303 43.7733 41.1809 43.7733 37.6661C43.7733 34.1512 40.9239 31.3018 37.409 31.3018C33.8941 31.3018 31.0447 34.1512 31.0447 37.6661C31.0447 41.1809 33.8941 44.0303 37.409 44.0303Z" fill="#FF5400"/>
</svg>
