<svg width="69" height="112" viewBox="0 0 69 112" fill="none" xmlns="http://www.w3.org/2000/svg">
    <path d="M1.40019 73.4034L0.720703 73.142L0.720703 73.87L0.720707 82.3553L0.720707 82.6981L1.04038 82.8217C8.89551 85.859 17.5284 92.5853 24.2854 99.974C27.671 103.995 30.2943 107.462 32.0718 110.703L32.2095 110.954L32.4959 110.963L36.2082 111.069L36.5204 111.078L36.6654 110.801C40.1202 104.205 47.3791 96.3026 55.726 89.8576L55.7315 89.8532C59.8236 86.6006 63.8116 84.5005 67.812 82.8162L68.1139 82.6891L68.118 82.3615L68.224 73.7702L68.2337 72.9883L67.5199 73.3076C59.401 76.9397 51.6105 82.3836 45.2088 88.5719L45.2087 88.5719L45.2027 88.5779C42.5563 91.2244 40.3736 93.7194 38.5239 96.1962L38.4196 1.95672L38.419 1.44237L37.9049 1.45749L30.6924 1.66962L30.2071 1.6839V2.16941L30.207 96.4601C26.237 90.9426 20.4067 85.0643 13.3992 79.8333L13.3992 79.8333L13.3928 79.8287C9.53488 77.0424 5.57129 75.0076 1.40019 73.4034Z" stroke="#FFF7F0"></path>
</svg>